<svg xmlns="http://www.w3.org/2000/svg" viewBox="0 0 99.88 167.77"><defs><style>.cls-1{fill:#fff;}.cls-14,.cls-2{fill:none;stroke:#000;}.cls-2{stroke-linecap:round;stroke-linejoin:round;stroke-width:2px;}.cls-3{stroke:#999;}.cls-14,.cls-3{stroke-miterlimit:10;}.cls-4{fill:#59567a;}.cls-5{fill:#4a4661;}.cls-6{fill:#775e54;}.cls-7{fill:#bf4b4d;}.cls-8{fill:#be4549;}.cls-9{fill:#80645a;}.cls-10{fill:#3a3a3a;}.cls-11{fill:#414241;}.cls-12{fill:#9c8a85;}.cls-13{font-size:12px;font-family:OpenSans-Light, Open Sans;}.cls-14{stroke-width:4px;}</style></defs><title>About Me</title><g id="Layer_2" data-name="Layer 2"><g id="Basic_Items" data-name="Basic Items"><g id="Frame"><rect class="cls-1" x="2.22" y="91.52" width="95.25" height="73.67"/><path class="cls-2" d="M15.72,92.4,47.34,1C61.61,42.22,79,92.4,79,92.4"/><circle id="Tack" class="cls-3" cx="47.22" cy="10.85" r="2.75"/><g id="Face"><rect x="27.92" y="149.13" width="12.61" height="14.97"/><path class="cls-4" d="M26.63,135.69c-2.14.17-2.74.25-2.74.25S11,140.25,10.67,140.42s-5.14,2.12-5.14,2.12l-2.41.76V164l15.79.09"/><path class="cls-4" d="M47.31,138.56c1.28.51,5.06,2.71,5.06,2.71l12.7,8.54,3.17,2.45.26,11.84-20.94.08"/><path class="cls-5" d="M27.15,135.6A9.58,9.58,0,0,0,23,138.39l-3.09,8.29,1.29,2.37.17.59-4,1.94.85,9.14.69,3.38h8"/><path class="cls-5" d="M46.79,138c3.09,4.06,3.78,5.16,3.78,5.16l1.54,8.12v.59l-2.49,1.86,4,2.37.26.33L51.43,164l-9.53.09"/><path class="cls-6" d="M27.15,136.7a12.79,12.79,0,0,0,1.2,6.68l4.63,5.5,1.72,1.69.34.25s.17.09.26,0a5.74,5.74,0,0,1,.77-.34l4.2-2.62,3.18-2.62s2.23-2.45,2.31-2.7l.52-1.61a10.71,10.71,0,0,0,.51-1.86"/><path class="cls-7" d="M27.23,136.87c.35,3.55.86,6,.86,6l3.35,4.06,3.6,3.89,1-.34,2.85-1.75,4.25-3.21,2.46-2.75.82-2.2.13-.61.21,1.31.09,1.27-1.2,4.73L44.22,153l-.77,2.2-2.83,3.55h-.26l-5.58-7.52h-.26l-6.69,6s-.17.17-.25,0-1.21-3.55-1.21-3.55l-.25-4.57-.52-4.48s.09-4.48.26-4.74,1-3.46,1-3.46"/><path class="cls-8" d="M27.66,157.33l2.57-2.53.43.59a16.07,16.07,0,0,1,.78,2.37c-.08.15-1.63,6.34-1.63,6.34H26.89l-.52-10.4"/><path class="cls-8" d="M37,164.1H41.9l1.8-9.73-3.26,4.23L37,154.21a36,36,0,0,1-2.06,3"/><path class="cls-9" d="M26.55,135.94c1.88,3.13,2.14,3.55,2.14,3.55L30.75,142l2.57,2.2a3.86,3.86,0,0,0,.6.34,7.23,7.23,0,0,0,1.38.42l2.14.17a1.13,1.13,0,0,0,.69-.09,13.68,13.68,0,0,0,2.14-.76c.95-.51,5.84-4.4,5.84-4.4l1.2-1.35,2.23-3.8,1.28-4.4.18-.85.43-1.94.51-3.89.86-2.79-.43-1.61-.6-2.45a14.12,14.12,0,0,0-.86-3c-.26-.08-2.06-1-2.4-.85s-8.15-.5-8.92-.59S32,110.91,32,110.91c-2.32-.59-3.26.17-3.26.17l-2.23,1.69.08,3.13-.34,1.27-.69,8-.08,4.48s.17,3.21.25,3.3"/><path class="cls-9" d="M24.57,125c-.08-1.94,0-.34-.08-1.94s.17-2.2,0-2.79a2.24,2.24,0,0,0-.95-1l-.43.51s.18,2.37.26,2.71a14.33,14.33,0,0,1-.08,2.11l.08,1.18s.17.76.26,1-.26.67-.26.84a1.8,1.8,0,0,1,0,.76,2.19,2.19,0,0,0,0,.85,2.69,2.69,0,0,0,.43.34l.51.25.43.17h.86l.09-2.7s.08-.77,0-.77"/><path class="cls-9" d="M54,125.88c-1.2,2.79-2.06,4.9-2.06,4.9l-.17.43v1.6s.08.42,0,.42-.52.51-.52.51-.6.42-.68.34-.43.25-.6.08L49.8,134l1-3.49.9-.66a6.91,6.91,0,0,0,.6-1.44c-.08-.08.52-2,.43-2a6.7,6.7,0,0,1,.35-1.19l.17-.51c.17-.5.34-.42.34-.59s.69.09.69.09l.08.67-.08.76"/><path class="cls-10" d="M26.12,119.32c-.52,6.68-.6,7.11-.6,7.11l-1.21-1.78.18-4.31-1.12-.68s-.6-5,0-6.85,2.57-5.07,2.23-5.07-.34-2.45-.08-4.06,5.74-5.58,5.66-5.5,11.41.17,11.41.17l2.57.43,4.72,2.2s6,7.47,6.18,8.11,1.37,3.42.94,5c-.94,3.47-2.49,7.44-2.49,7.44l-2.4,7.53a6.13,6.13,0,0,1-.51,1.18c-.17.17-.86,1-.86,1l1.63-10.15L51,114.59l-1.2-1-11.42-1.09-6-1-4.63,1-.95,2.2"/><path class="cls-11" d="M24.14,119.79c1.46-.93.78-.93,1.46-.93h.69s.6.25.51.34.26.34.26.84.17,2.88.17,2.88a7.93,7.93,0,0,0,.35,1.18c.08.09,1.37.76,1.37.76s3.43.68,3.69.76,3.17.09,3.17.09l.43-.09s.17,0,.43-.33,1.54-2.46,1.54-2.46.95-1,.86-.93.6-.17.6-.17.43.09.43.17.52.17.52.34.6,3.13.6,3.13l.51,1s.43.42.6.42a7.28,7.28,0,0,1,1,.34l3,.5,2.41.17,1.11-.25s.94-.76.94-.93,1-2.54,1-2.54l.43-.93s.26-.25.35-.25.43.34.43.34l.25.5-.17.93.26.09.43-1.19.25-.84a7.69,7.69,0,0,0-.85-1.18c-.17-.09-3.86-1-3.86-1s-4.89-.68-5.67-.59l-2.74.25L39.5,120l-2.32-.84a19.18,19.18,0,0,0-3.34-1c-.17.17-4.81-.76-5.24-.76H26.12l-1.72.76"/><path class="cls-12" d="M27.92,118.52a1.77,1.77,0,0,1,1-.42,7,7,0,0,1,1.37,0c0,.08,2.15.25,2.06.34s3.6.76,3.35.76,1.2.42,1.2.42a8.62,8.62,0,0,1,1,.68,5.42,5.42,0,0,1,.08,1.6A28.8,28.8,0,0,1,36.15,125a1.46,1.46,0,0,1-.68.26H34.1l-2-.17-2.06-.43-1.63-.59a5.06,5.06,0,0,1-.51-.84c-.09-.26-.17-.6-.17-.6l-.09-2.45.17-1.52"/><path class="cls-12" d="M41.47,121.48a2.48,2.48,0,0,1,.78-.84l2.57-.09,3.09.25,2.74.51.78.59a8.54,8.54,0,0,1,.17.93,29.12,29.12,0,0,1-1,3,10.32,10.32,0,0,1-.77,1.1l-.69.34a23.59,23.59,0,0,1-2.48-.09c-.09-.08-2.32-.25-2.32-.34s-1.8-.5-1.8-.59-.77-1-.69-.84-.43-2.12-.43-2.12l-.08-1.61"/></g><text class="cls-13" transform="translate(60.84 111.85)">Meet<tspan x="7.72" y="14.4">Me!</tspan></text><rect class="cls-14" x="2" y="91.69" width="95.88" height="74.08" rx="1" ry="1"/></g></g></g></svg>