<svg xmlns="http://www.w3.org/2000/svg" viewBox="0 0 158.75 116.05"><defs><style>.cls-1{fill:#4b4b4b;}.cls-2{fill:#393939;}.cls-3{fill:#ffba40;}.cls-4{fill:#414141;}.cls-5{fill:#43443f;}.cls-6{fill:none;stroke:#4b4b4b;stroke-miterlimit:10;stroke-width:7px;}.cls-7{fill:#1a1a1a;opacity:0.31;}</style></defs><title>Briefcase_1</title><g id="Layer_2" data-name="Layer 2"><g id="Basic_Items" data-name="Basic Items"><g id="Briefcase"><path class="cls-1" d="M156,116.05H4.72c-3,0-4.72-1.67-4.72-3.72V24.59a3.72,3.72,0,0,1,3.72-3.72H155a3.73,3.73,0,0,1,3.72,3.72v87.74C158.75,114.38,157.08,116.05,156,116.05Z"/><rect class="cls-2" y="62.14" width="158.75" height="4.69"/><rect class="cls-3" x="68.4" y="52.29" width="21.96" height="30.25" rx="4.46" ry="4.46"/><ellipse class="cls-4" cx="79.38" cy="68.29" rx="4.21" ry="5.39"/><ellipse class="cls-5" cx="79.38" cy="72.4" rx="2.36" ry="5.63"/><path class="cls-6" d="M42.07,29.14C42.07,15,58.76,3.5,79.38,3.5s37.3,11.47,37.3,25.64"/><path class="cls-7" d="M90.43,116l64.72-.16a3.72,3.72,0,0,0,3.41-4V24.92a3.71,3.71,0,0,0-3.42-4h-44Z"/></g></g></g></svg>