<svg xmlns="http://www.w3.org/2000/svg" viewBox="0 0 102.5 50.38"><defs><style>.cls-1{fill:#a67c52;}.cls-2{fill:#b3b3b3;}.cls-3{fill:#27383e;}.cls-4{fill:#8da4a6;}.cls-5{fill:#4b677e;stroke:#999;stroke-miterlimit:10;stroke-width:2.5px;}.cls-6{fill:#034254;}.cls-7{fill:#e6e6e6;}.cls-8{fill:#ffffcd;}</style></defs><title>Camera</title><g id="Layer_2" data-name="Layer 2"><g id="Desk"><rect id="Camera_Base" data-name="Camera Base" class="cls-1" y="38.05" width="102.5" height="12.33"/></g><g id="Basic_Items" data-name="Basic Items"><g id="Camera"><path class="cls-2" d="M17.09,15.16h.75a0,0,0,0,1,0,0v5.46a0,0,0,0,1,0,0h-.75a.86.86,0,0,1-.86-.86V16A.86.86,0,0,1,17.09,15.16Z"/><rect class="cls-3" x="17.71" y="1.98" width="68.56" height="38.06" rx="4.14" ry="4.14"/><rect class="cls-4" x="17.71" y="34.23" width="68.56" height="1.61"/><rect class="cls-4" x="17.71" y="9.59" width="68.56" height="1.61"/><g id="Flash_and_Lens" data-name="Flash and Lens"><g id="Lens"><circle class="cls-5" cx="48.32" cy="22.71" r="9.11"/><circle class="cls-6" cx="48.32" cy="22.71" r="5.46"/><ellipse class="cls-7" cx="46.39" cy="21.56" rx="2.41" ry="2.15" transform="translate(-4.76 21.92) rotate(-25.33)"/></g><rect class="cls-8" x="61.02" y="17.17" width="3.75" height="8.89" rx="1.87" ry="1.87"/></g><path class="cls-4" d="M39.46,2H64.53a0,0,0,0,1,0,0V5.3A1.71,1.71,0,0,1,62.81,7H41.17A1.71,1.71,0,0,1,39.46,5.3V2A0,0,0,0,1,39.46,2Z"/><path class="cls-2" d="M71.24,0h10a.86.86,0,0,1,.86.86V2a0,0,0,0,1,0,0H70.38a0,0,0,0,1,0,0V.86A.86.86,0,0,1,71.24,0Z"/></g></g></g></svg>