<svg xmlns="http://www.w3.org/2000/svg" viewBox="0 0 750 243.06"><defs><style>.cls-1{fill:#2a3a41;}.cls-2{fill:#223138;}.cls-3{fill:#9e5f2e;}</style></defs><title>Desk</title><g id="Layer_2" data-name="Layer 2"><g id="Desk"><g id="Table"><g id="Bottom"><rect class="cls-1" x="86.72" y="42.91" width="576.56" height="18.24"/><g id="Legs"><g id="Leg_Left" data-name="Leg Left"><path class="cls-1" d="M86.72,60.69h79.69a0,0,0,0,1,0,0V240.08a3,3,0,0,1-3,3H89.7a3,3,0,0,1-3-3V60.69A0,0,0,0,1,86.72,60.69Z"/><rect class="cls-2" x="86.72" y="60.69" width="79.69" height="3.65"/></g></g><g id="Legs-2" data-name="Legs"><g id="Leg_Left-2" data-name="Leg Left"><path class="cls-1" d="M583.59,60.69h79.69a0,0,0,0,1,0,0V240.08a3,3,0,0,1-3,3H586.58a3,3,0,0,1-3-3V60.69A0,0,0,0,1,583.59,60.69Z"/><rect class="cls-2" x="583.59" y="60.69" width="79.69" height="3.65"/></g></g><rect class="cls-2" x="86.72" y="38.9" width="576.56" height="4.38"/></g><g id="Top"><path id="Top_Part" data-name="Top Part" class="cls-3" d="M3.9,0H746.1A3.9,3.9,0,0,1,750,3.9V38a2,2,0,0,1-2,2H2a2,2,0,0,1-2-2V3.9A3.9,3.9,0,0,1,3.9,0Z"/></g></g></g></g></svg>