<svg xmlns="http://www.w3.org/2000/svg" viewBox="0 0 67.45 146.34"><defs><style>.cls-1{fill:none;stroke:#000;stroke-miterlimit:10;stroke-width:5px;}.cls-2{fill:#22b573;}.cls-3{fill:#fcee21;}</style></defs><title>Lamp_1</title><g id="Layer_2" data-name="Layer 2"><g id="Basic_Items" data-name="Basic Items"><g id="Lamp"><line class="cls-1" x1="42.24" y1="134.59" x2="61.41" y2="72.42"/><line class="cls-1" x1="61.91" y1="69.42" x2="25.08" y2="13.92"/><path class="cls-2" d="M24.36,138.83a17.83,17.83,0,0,1,14.59-7H49.54c9.42,0,17,6.48,17,14.5H21.91A12.94,12.94,0,0,1,24.36,138.83Z"/><path class="cls-3" d="M8.37,16.83C7,19.2,6.8,21.59,8.05,23.06l2.14,2.51c1.9,2.23,6.46,1.46,10.19-1.72h0l-9-10.57A13.45,13.45,0,0,0,8.37,16.83Z"/><path class="cls-2" d="M10.36,1.88C17-.88,23.3-.68,26.63,3l5.7,6.33C37.4,15,33.69,26.56,24,35.25l0,0L0,8.55A36.83,36.83,0,0,1,10.36,1.88Z"/><circle class="cls-2" cx="61.27" cy="71.98" r="6.18"/></g></g></g></svg>