<svg xmlns="http://www.w3.org/2000/svg" xmlns:xlink="http://www.w3.org/1999/xlink" viewBox="0 0 163.5 14"><defs><style>.cls-1,.cls-2,.cls-3,.cls-4{stroke:#999;stroke-miterlimit:10;}.cls-1{fill:url(#radial-gradient);}.cls-2{fill:url(#radial-gradient-2);}.cls-3{fill:#b3b3b3;}.cls-4{fill:#e6e6e6;}</style><radialGradient id="radial-gradient" cx="137.51" cy="31.24" r="5.59" gradientTransform="matrix(0, -0.73, 2.81, 0, 66.43, 106.19)" gradientUnits="userSpaceOnUse"><stop offset="0.04" stop-color="#b3b3b3"/><stop offset="0.17" stop-color="#c8c8c8"/><stop offset="0.35" stop-color="#e0e0e0"/><stop offset="0.54" stop-color="#f1f1f1"/><stop offset="0.75" stop-color="#fcfcfc"/><stop offset="1" stop-color="#fff"/></radialGradient><radialGradient id="radial-gradient-2" cx="-17.16" cy="31.24" r="5.59" gradientTransform="matrix(0, -0.73, 2.81, 0, -78.19, -6.29)" xlink:href="#radial-gradient"/></defs><title>Laptop</title><g id="Layer_2" data-name="Layer 2"><g id="Basic_Items" data-name="Basic Items"><g id="Laptop"><g id="Hinges"><rect class="cls-1" x="146.75" y="5.38" width="14.63" height="1.63"/><rect class="cls-2" x="2.13" y="5.38" width="14.63" height="1.63"/></g><rect id="Bottom_Laptop" data-name="Bottom Laptop" class="cls-3" x="0.5" y="7" width="162.5" height="6.5" rx="1.56" ry="1.56"/><path id="Top_Laptop" data-name="Top Laptop" class="cls-3" d="M.5.5H163a0,0,0,0,1,0,0V4.56a.81.81,0,0,1-.81.81H1.31A.81.81,0,0,1,.5,4.56V.5A0,0,0,0,1,.5.5Z"/><path id="Mouse_Laptop" data-name="Mouse Laptop" class="cls-4" d="M63.74,7.41h36a0,0,0,0,1,0,0v.81a.81.81,0,0,1-.81.81H64.55a.81.81,0,0,1-.81-.81V7.41a0,0,0,0,1,0,0Z"/></g></g></g></svg>