<svg xmlns="http://www.w3.org/2000/svg" viewBox="0 0 228.77 350.62"><title>Logo</title><g id="Layer_2" data-name="Layer 2"><g id="Basic_Items" data-name="Basic Items"><g id="Logo"><path d="M204.66,170.54h24.11V350.62H202.86V210.5l-55.37,69.61h-4.77l-56-69.61V350.62H60.93V170.54H85.34l59.84,74Z"/><path d="M85.34,112.6l59.84,74,59.48-74h24.11V292.68H202.86V152.57l-55.37,69.6h-4.77l-57-66.78"/><path d="M24.81,124.65V213.4H0V0H58.53q39.27,0,58,15t18.76,45.25q0,42.33-42.92,57.22l52.79,69.06-2.58,34.36L59,125.86Zm0-21.31h34q26.28,0,38.54-10.43T109.62,61.6q0-21.16-12.48-30.51T57.07,21.75H24.81Z"/></g></g></g></svg>