<svg xmlns="http://www.w3.org/2000/svg" viewBox="0 0 350.62 350.62"><defs><style>.cls-1{fill:none;}</style></defs><title>LogoIcon</title><g id="Layer_2" data-name="Layer 2"><g id="Layer_1-2" data-name="Layer 1"><g id="Layer_2-2" data-name="Layer 2"><g id="Basic_Items" data-name="Basic Items"><g id="Logo"><path d="M265.59,170.54H289.7V350.62H263.78V210.5l-55.36,69.61h-4.78l-56-69.61V350.62H121.85V170.54h24.41l59.84,74Z"/><path d="M146.26,112.6l59.84,74,59.48-74h24.11V292.68H263.78V152.57l-55.36,69.6h-4.78l-57-66.78"/><path d="M85.73,124.65V213.4H60.92V0h58.53q39.27,0,58,15t18.76,45.25q0,42.33-42.92,57.22l52.8,69.06-2.59,34.36-83.58-95Zm0-21.31h34q26.28,0,38.54-10.43T170.55,61.6q0-21.16-12.49-30.51T118,21.75H85.73Z"/></g></g></g><rect class="cls-1" width="350.62" height="350.62"/></g></g></svg>