<svg xmlns="http://www.w3.org/2000/svg" viewBox="0 0 250.73 198.5"><defs><style>.cls-1,.cls-16,.cls-4{fill:#e6e6e6;}.cls-2{fill:#f2f2f2;}.cls-3{fill:#b3b3b3;}.cls-4{stroke:#b3b3b3;}.cls-16,.cls-17,.cls-18,.cls-4,.cls-5,.cls-6{stroke-miterlimit:10;}.cls-5,.cls-7{fill:#333;}.cls-16,.cls-17,.cls-18,.cls-5,.cls-6{stroke:#000;}.cls-6{fill:#d8d5cc;}.cls-17,.cls-8{fill:#999;}.cls-9{fill:#662d91;}.cls-10{fill:#998675;}.cls-11{fill:#2e3192;}.cls-12{fill:#f7931e;}.cls-13{fill:#c1272d;}.cls-14{fill:#fcee21;}.cls-15{fill:#009245;}.cls-18{fill:none;}</style></defs><title>Monitor</title><g id="Layer_2" data-name="Layer 2"><g id="Basic_Items" data-name="Basic Items"><g id="Monitor"><rect class="cls-1" x="50.15" y="187.8" width="150.43" height="10.7" rx="3.57" ry="3.57"/><line class="cls-1" x1="125.36" y1="150.56" x2="125.36" y2="187.94"/><polygon class="cls-1" points="142.91 150.56 159.81 187.94 90.92 187.94 107.81 150.56 142.91 150.56"/><line class="cls-2" x1="125.36" y1="150.56" x2="125.36" y2="155.69"/><polygon class="cls-3" points="142.9 150.56 145.29 155.69 105.44 155.69 107.83 150.56 142.9 150.56"/><path class="cls-4" d="M.5,132.05H250.23a0,0,0,0,1,0,0v11.08a7.35,7.35,0,0,1-7.35,7.35H7.85A7.35,7.35,0,0,1,.5,143.14V132.05a0,0,0,0,1,0,0Z"/><path class="cls-5" d="M5.85.5h239a5.35,5.35,0,0,1,5.35,5.35V133.39a0,0,0,0,1,0,0H.5a0,0,0,0,1,0,0V5.85A5.35,5.35,0,0,1,5.85.5Z"/><rect class="cls-6" x="9.42" y="5.55" width="231.89" height="124.27"/><g id="Logo"><path d="M128.2,141.52H129v5.66h-.81v-4.4L126.41,145h-.15l-1.77-2.19v4.4h-.81v-5.66h.77l1.88,2.33Z"/><path d="M124.45,139.7l1.88,2.32,1.87-2.32H129v5.66h-.81V141l-1.74,2.19h-.15l-1.8-2.1"/><path d="M122.55,140.08v2.79h-.78v-6.71h1.84a2.85,2.85,0,0,1,1.82.47,1.69,1.69,0,0,1,.59,1.42,1.78,1.78,0,0,1-1.35,1.8l1.66,2.17-.08,1.08-2.63-3Zm0-.67h1.07a1.84,1.84,0,0,0,1.21-.33,1.22,1.22,0,0,0,.39-1,1.14,1.14,0,0,0-.4-1,2.17,2.17,0,0,0-1.26-.29h-1Z"/></g><g id="Visual_Studio" data-name="Visual Studio"><rect class="cls-7" x="18.75" y="17.4" width="179.17" height="107.5" rx="1.01" ry="1.01"/><rect class="cls-1" x="42.25" y="24.79" width="151.5" height="93.17"/><rect class="cls-8" x="24.91" y="24.79" width="14.67" height="93.17"/><rect class="cls-9" x="49.25" y="34.92" width="40.67" height="3" rx="1.5" ry="1.5"/><rect class="cls-10" x="58.25" y="41.52" width="20.5" height="3" rx="1.06" ry="1.06"/><rect class="cls-3" x="80.87" y="41.52" width="17.29" height="3" rx="0.98" ry="0.98"/><rect class="cls-11" x="70.41" y="48.13" width="24.92" height="3" rx="1.17" ry="1.17"/><rect class="cls-10" x="97.08" y="48.12" width="14.75" height="3" rx="0.9" ry="0.9"/><rect class="cls-12" x="113.66" y="48.13" width="20" height="3" rx="1.05" ry="1.05"/><rect class="cls-12" x="44.29" y="28.31" width="20" height="3" rx="1.05" ry="1.05"/><rect class="cls-3" x="65.75" y="28.31" width="17.29" height="3" rx="0.98" ry="0.98"/><rect class="cls-3" x="58.25" y="54.73" width="24.79" height="3" rx="1.17" ry="1.17"/><rect class="cls-10" x="84.12" y="54.73" width="20.5" height="3" rx="1.06" ry="1.06"/><rect class="cls-9" x="106.21" y="54.73" width="33.83" height="3" rx="1.37" ry="1.37"/><rect class="cls-11" x="92.04" y="61.33" width="24.92" height="3" rx="1.17" ry="1.17"/><rect class="cls-12" x="70.41" y="61.33" width="20" height="3" rx="1.05" ry="1.05"/><rect class="cls-3" x="119.46" y="61.33" width="24.79" height="3" rx="1.17" ry="1.17"/><rect class="cls-11" x="70.41" y="67.94" width="24.92" height="3" rx="1.17" ry="1.17"/><rect class="cls-10" x="98.96" y="67.94" width="14.75" height="3" rx="0.9" ry="0.9"/><rect class="cls-9" x="114.87" y="67.94" width="40.67" height="3" rx="1.5" ry="1.5"/><rect class="cls-3" x="79.79" y="81.15" width="24.79" height="3" rx="1.17" ry="1.17"/><rect class="cls-10" x="58.25" y="81.15" width="20.5" height="3" rx="1.06" ry="1.06"/><rect class="cls-9" x="107.75" y="81.15" width="33.83" height="3" rx="1.37" ry="1.37"/><rect class="cls-9" x="49.25" y="87.75" width="40.67" height="3" rx="1.5" ry="1.5"/><rect class="cls-12" x="44.29" y="94.35" width="20" height="3" rx="1.05" ry="1.05"/><rect class="cls-3" x="65.75" y="94.35" width="17.29" height="3" rx="0.98" ry="0.98"/><rect class="cls-10" x="58.25" y="74.54" width="20.5" height="3" rx="1.06" ry="1.06"/><rect class="cls-11" x="109.33" y="74.54" width="24.92" height="3" rx="1.17" ry="1.17"/><rect class="cls-3" x="81.91" y="74.54" width="24.79" height="3" rx="1.17" ry="1.17"/><rect class="cls-12" x="135.87" y="74.54" width="20" height="3" rx="1.05" ry="1.05"/><g id="Buttons_for_Terminal" data-name="Buttons for Terminal"><circle class="cls-13" cx="23.05" cy="21.13" r="1.38"/><circle class="cls-14" cx="28.05" cy="21.13" r="1.38"/><circle class="cls-15" cx="33.04" cy="21.13" r="1.38"/></g></g><g id="Terminal"><rect class="cls-16" x="150.76" y="27.13" width="85.02" height="75.67"/><rect class="cls-17" x="150.76" y="27.13" width="85.02" height="5.95"/><g id="Buttons_for_Terminal-2" data-name="Buttons for Terminal"><circle class="cls-13" cx="154.59" cy="29.78" r="1.38"/><circle class="cls-14" cx="159.58" cy="29.78" r="1.38"/><circle class="cls-15" cx="164.58" cy="29.78" r="1.38"/></g><rect x="157.09" y="36" width="34.57" height="2.55" rx="1.28" ry="1.28"/><rect x="161.41" y="40.98" width="45.07" height="2.55" rx="1.28" ry="1.28"/><rect x="168.21" y="45.81" width="38.2" height="2.55" rx="1.28" ry="1.28"/><rect x="168.21" y="50.64" width="52.33" height="2.55" rx="1.28" ry="1.28"/><rect x="161.41" y="55.46" width="45.07" height="2.55" rx="1.28" ry="1.28"/><rect x="157.09" y="60.25" width="38.2" height="2.55" rx="1.28" ry="1.28"/><rect x="161.41" y="65.12" width="52.33" height="2.55" rx="1.28" ry="1.28"/><rect x="157.09" y="69.96" width="22.67" height="2.55" rx="0.84" ry="0.84"/><rect x="161.41" y="74.77" width="47.75" height="2.55" rx="1.22" ry="1.22"/><path class="cls-18" d="M153.61,82l1.47-1.47-1.44-1.44"/><path class="cls-18" d="M153.61,63l1.47-1.47-1.44-1.44"/><path class="cls-18" d="M153.61,72.69l1.47-1.47-1.44-1.44"/><path class="cls-18" d="M153.61,38.72l1.47-1.46-1.44-1.44"/></g></g></g></g></svg>