<svg xmlns="http://www.w3.org/2000/svg" viewBox="0 0 762 780.52"><defs><style>.cls-1{fill:#59567a;}.cls-2{fill:#4a4661;}.cls-3{fill:#775e54;}.cls-4{fill:#bf4b4d;}.cls-5{fill:#be4549;}.cls-6{fill:#80645a;}.cls-7{fill:#3a3a3a;}.cls-8{fill:#414241;}.cls-9{fill:#9c8a85;}</style></defs><title>profile</title><g id="Layer_2" data-name="Layer 2"><g id="Tie"><rect x="289" y="602.52" width="147" height="177"/></g><g id="Suit"><path class="cls-1" d="M274,443.52c-25,2-32,3-32,3s-150,51-154,53c-3.22,1.61-60,25-60,25l-28,9v245l184,1"/><path class="cls-1" d="M515,477.52c15,6,59,32,59,32l148,101,37,29,3,140-244,1"/></g><g id="Suit_Collar" data-name="Suit Collar"><path class="cls-2" d="M280,442.52c-30,10-48,33-48,33l-36,98,15,28,2,7-47,23,10,108,8,40h93"/><path class="cls-2" d="M509,470.52c36,48,44,61,44,61l18,96v7l-29,22,46,28,3,4-28,90-111,1"/></g><g id="Neck"><path class="cls-3" d="M280,455.52c-5,42,14,79,14,79l54,65,20,20,4,3s2,1,3,0,9-4,9-4l49-31,37-31s26-29,27-32l6-19c6-19,6-22,6-22"/></g><g id="Shirt"><path class="cls-4" d="M281,457.52c4,42,10,71,10,71l39,48,42,46,12-4,33.25-20.75,49.5-38,28.75-32.5,9.5-26,1.5-7.25,2.5,15.5,1,15-14,56-17,68-9,26-33,42h-3l-65-89h-3l-78,71s-2,2-3,0-14-42-14-42l-3-54-6-53s1-53,3-56,12-41,12-41"/></g><g id="Shirt_Under" data-name="Shirt Under"><path class="cls-5" d="M286,699.52l30-30,5,7s10,26,9,28c-.89,1.78-19,75-19,75H277l-6-123"/><path class="cls-5" d="M395,779.52h57l21-115-38,50-40-52s-25,40-24,36"/></g><g id="Layer_2-2" data-name="Layer 2"><path class="cls-6" d="M273,446.52c22,37,25,42,25,42l24,30,30,26s1,1,7,4,16,5,16,5l25,2a12.69,12.69,0,0,0,8-1c4-2,14-3,25-9s68-52,68-52l14-16,26-45,15-52,2-10,5-23,6-46,10-33-5-19-7-29s-7-34-10-35-24-12-28-10-95-6-104-7-88-18-88-18c-27-7-38,2-38,2l-26,20,1,37-4,15-8,94-1,53s2,38,3,39"/><path class="cls-6" d="M250,317.52c-1-23,0-4-1-23s2-26,0-33-11-12-11-12l-5,6s2,28,3,32-1,25-1,25l1,14s2,9,3,12-3,8-3,10,1,2,0,9,0,10,0,10a27.36,27.36,0,0,0,5,4l6,3,5,2h10l1-32s1-9,0-9"/><path class="cls-6" d="M593,327.52c-14,33-24,58-24,58l-2,5v19s1,5,0,5-6,6-6,6-7,5-8,4-5,3-7,1l-2-2,11.5-41.17,10.5-7.83s8-16,7-17,6-24,5-24,4-14,4-14l2-6c2-6,4-5,4-7s8,1,8,1l1,8-1,9"/></g><g id="Layer_3" data-name="Layer 3"><path class="cls-7" d="M268,250c-6,79-7,84-7,84l-14-21,2-51-13-8s-7-59,0-81,30-60,26-60-4-29-1-48S328-1,327,0,460,2,460,2l30,5,55,26s70.11,88.42,72,96c2,8,16,40.42,11,59-11,41-29,88-29,88l-28,89s-4,12-6,14-10,12-10,12l19-120-16-77-14-12L411,169l-70-12-54,11.5-11,26"/></g><g id="Layer_4" data-name="Layer 4"><path class="cls-8" d="M245,255.52c17-11,9-11,17-11h8s7,3,6,4,3,4,3,10,2,34,2,34,3,13,4,14,16,9,16,9,40,8,43,9,37,1,37,1l5-1s2,0,5-4,18-29,18-29,11-12,10-11,7-2,7-2,5,1,5,2,6,2,6,4,7,37,7,37l6,12s5,5,7,5,12,4,12,4l35,6,28,2,13-3s11-9,11-11,12-30,12-30l5-11s3-3,4-3,5,4,5,4l3,6-2,11,3,1,5-14,3-10s-8-13-10-14-45-12-45-12-57-8-66-7-32,3-32,3l-17-2-27-10s-37-14-39-12-56-9-61-9H268l-20,9"/></g><g id="Eyes"><path class="cls-9" d="M289,240.52a20.51,20.51,0,0,1,12-5s16-1,16,0,25,3,24,4,42,9,39,9,14,5,14,5,11.37,6.73,12,8c1,2,1.78,15.07,1,19-1,5-22,37-22,37-5,3-8,3-8,3H361l-23-2-24-5-19-7s-5-7-6-10-2-7-2-7l-1-29,2-18"/><path class="cls-9" d="M447,275.52a29,29,0,0,1,9-10l30-1,36,3,32,6,9,7s2,8.76,2,11c0,3-9.74,33.47-11,36-2,4-9,13-9,13l-8,4s-28,0-29-1-27-3-27-4-21-6-21-7-9-12-8-10-5-25-5-25l-1-19"/></g></g></svg>