<svg xmlns="http://www.w3.org/2000/svg" viewBox="0 0 79.91 65.1"><defs><style>.cls-1{fill:#a67c52;}.cls-2{fill:#ccc;}.cls-3{fill:#666;}.cls-4{fill:#999;}</style></defs><title>Resume</title><g id="Layer_2" data-name="Layer 2"><g id="Desk"><rect id="Camera_Base" data-name="Camera Base" class="cls-1" y="55.01" width="79.91" height="10.1"/></g><g id="Basic_Items" data-name="Basic Items"><g id="Resume"><polyline class="cls-2" points="18.24 17.17 33.95 0 61.67 0 61.67 54.77 18.24 54.77 18.24 12.02"/><rect class="cls-3" x="34.68" y="3.53" width="22.15" height="1.66" rx="0.83" ry="0.83"/><rect class="cls-3" x="33.76" y="7.43" width="22.15" height="1.66" rx="0.83" ry="0.83"/><rect class="cls-3" x="26.44" y="11.69" width="29.13" height="1.52" rx="0.76" ry="0.76"/><path class="cls-4" d="M26.52,8.12l-8.28,9.05,15.18.1L34,0Z"/><rect class="cls-3" x="35.71" y="17.87" width="22.15" height="1.66" rx="0.83" ry="0.83"/><rect class="cls-3" x="20.6" y="21.76" width="36.34" height="1.66" rx="0.83" ry="0.83"/><rect class="cls-3" x="27.47" y="26.03" width="29.13" height="1.52" rx="0.76" ry="0.76"/><rect class="cls-3" x="21.28" y="29.95" width="36.34" height="1.66" rx="0.83" ry="0.83"/><rect class="cls-3" x="23.34" y="34.21" width="33.94" height="1.52" rx="0.76" ry="0.76"/><rect class="cls-3" x="21.34" y="39.27" width="36.34" height="1.66" rx="0.83" ry="0.83"/><rect class="cls-3" x="28.21" y="43.54" width="29.13" height="1.52" rx="0.76" ry="0.76"/><rect class="cls-3" x="22.03" y="47.46" width="36.34" height="1.66" rx="0.83" ry="0.83"/></g></g></g></svg>