<svg xmlns="http://www.w3.org/2000/svg" viewBox="0 0 263.93 71.9"><defs><style>.cls-1{fill:#ccc;}.cls-2{fill:#666;}.cls-3,.cls-5{fill:#e6e6e6;}.cls-3{stroke:#333;stroke-miterlimit:10;stroke-width:3px;}.cls-4{fill:#8bc7cf;}</style></defs><title>Speakers</title><g id="Layer_2" data-name="Layer 2"><g id="Basic_Items" data-name="Basic Items"><g id="Speaker"><g id="Left_Speaker" data-name="Left Speaker"><g id="Feet_of_Speaker" data-name="Feet of Speaker"><path class="cls-1" d="M3.78,68h8.82a0,0,0,0,1,0,0v3a.88.88,0,0,1-.88.88H4.66A.88.88,0,0,1,3.78,71V68A0,0,0,0,1,3.78,68Z"/><path class="cls-1" d="M34.06,68h8.82a0,0,0,0,1,0,0v3a.88.88,0,0,1-.88.88H34.94a.88.88,0,0,1-.88-.88V68A0,0,0,0,1,34.06,68Z"/></g><path class="cls-2" d="M2.86,0H43.79a2.86,2.86,0,0,1,2.86,2.86v64a1.43,1.43,0,0,1-1.43,1.43H1.43A1.43,1.43,0,0,1,0,66.83v-64A2.86,2.86,0,0,1,2.86,0Z"/><circle class="cls-3" cx="23.33" cy="42.42" r="17.15"/><circle class="cls-4" cx="23.33" cy="42.42" r="9.92"/><circle class="cls-3" cx="23.33" cy="11.89" r="9.21"/><circle class="cls-4" cx="23.33" cy="11.89" r="5.33"/><g id="Knobs"><g id="Knob"><circle class="cls-5" cx="23.33" cy="65.33" r="1.81"/><circle class="cls-1" cx="23.33" cy="65.33" r="0.84"/></g><g id="Knob-2" data-name="Knob"><circle class="cls-5" cx="27.2" cy="66.08" r="1.07"/><circle class="cls-1" cx="27.2" cy="66.08" r="0.49"/></g><g id="Knob-3" data-name="Knob"><circle class="cls-5" cx="19.45" cy="66.08" r="1.07"/><circle class="cls-1" cx="19.45" cy="66.08" r="0.49"/></g></g></g><g id="Right_Speaker" data-name="Right Speaker"><g id="Feet_of_Speaker-2" data-name="Feet of Speaker"><path class="cls-1" d="M221.05,68h8.82a0,0,0,0,1,0,0v3a.88.88,0,0,1-.88.88h-7.05a.88.88,0,0,1-.88-.88V68A0,0,0,0,1,221.05,68Z"/><path class="cls-1" d="M251.34,68h8.82a0,0,0,0,1,0,0v3a.88.88,0,0,1-.88.88h-7.05a.88.88,0,0,1-.88-.88V68A0,0,0,0,1,251.34,68Z"/></g><path class="cls-2" d="M220.14,0h40.94a2.86,2.86,0,0,1,2.86,2.86v64a1.43,1.43,0,0,1-1.43,1.43H218.71a1.43,1.43,0,0,1-1.43-1.43v-64A2.86,2.86,0,0,1,220.14,0Z"/><circle class="cls-3" cx="240.6" cy="42.42" r="17.15"/><circle class="cls-4" cx="240.6" cy="42.42" r="9.92"/><circle class="cls-3" cx="240.6" cy="11.89" r="9.21"/><circle class="cls-4" cx="240.6" cy="11.89" r="5.33"/></g></g></g></g></svg>