<svg xmlns="http://www.w3.org/2000/svg" viewBox="0 0 117.95 279.69"><defs><style>.cls-1,.cls-5{fill:#fff;}.cls-1,.cls-2{stroke:#fff;stroke-width:5px;}.cls-1,.cls-2,.cls-3,.cls-7{stroke-miterlimit:10;}.cls-2,.cls-3{fill:none;}.cls-3{stroke:#b20000;stroke-width:10px;}.cls-4{fill:#b20000;}.cls-6{fill:#4d4d4d;}.cls-7{stroke:#000;}</style></defs><title>Tennis</title><g id="Layer_2" data-name="Layer 2"><g id="Desk"><g id="Full_Racket" data-name="Full Racket"><g id="Strings"><line class="cls-1" x1="11.02" y1="54.56" x2="100.47" y2="45.78"/><line class="cls-1" x1="8.8" y1="68.77" x2="105.41" y2="59.29"/><line class="cls-1" x1="8.37" y1="82.81" x2="108.56" y2="72.97"/><line class="cls-1" x1="9.74" y1="96.67" x2="109.92" y2="86.83"/><line class="cls-1" x1="17.82" y1="123.87" x2="107.27" y2="115.08"/><line class="cls-1" x1="28.13" y1="136.85" x2="99.69" y2="129.82"/><line class="cls-1" x1="38.44" y1="149.83" x2="92.11" y2="144.56"/><line class="cls-1" x1="15.03" y1="40.17" x2="93.74" y2="32.44"/><line class="cls-1" x1="12.89" y1="110.36" x2="109.49" y2="100.87"/><line class="cls-1" x1="21.72" y1="25.52" x2="84.33" y2="19.37"/><line class="cls-2" x1="13.12" y1="38.89" x2="22.32" y2="132.63"/><line class="cls-2" x1="26.56" y1="18.78" x2="39.67" y2="152.36"/><line class="cls-2" x1="44.96" y1="9.99" x2="59.76" y2="160.74"/><line class="cls-2" x1="61.82" y1="10.02" x2="76.27" y2="157.19"/><line class="cls-2" x1="79.34" y1="16.73" x2="91.73" y2="142.91"/><line class="cls-2" x1="96.14" y1="38.2" x2="104.24" y2="120.73"/></g><g id="Racket"><g id="Head"><path class="cls-3" d="M77,191.41c.6-12.07,3.24-26,17.57-48"/><path class="cls-3" d="M65.63,193.17c-3.13-12.45-7.2-25.94-22.87-39.67"/><polygon class="cls-4" points="81.45 184.41 81.9 202.34 63.6 204.14 60.05 187.08 81.45 184.41"/><path class="cls-3" d="M5.49,88.63C9.83,132.41,42.25,161.86,66.7,161s50.1-39.7,45.77-83.48S75,6.49,50.74,8.9,1.15,44.86,5.49,88.63Z"/></g><path class="cls-5" d="M65.34,200.72H80.16A1.88,1.88,0,0,1,82,202.61v1.88a0,0,0,0,1,0,0H63.46a0,0,0,0,1,0,0v-1.88a1.88,1.88,0,0,1,1.88-1.88Z" transform="translate(-19.45 8.08) rotate(-5.61)"/><rect class="cls-6" x="67.3" y="204.13" width="18.51" height="74.53" transform="translate(-23.22 8.64) rotate(-5.61)"/><path class="cls-6" d="M71,274H89.14a2.3,2.3,0,0,1,2.3,2.3v2.3a0,0,0,0,1,0,0H68.72a0,0,0,0,1,0,0v-2.3A2.3,2.3,0,0,1,71,274Z" transform="translate(-26.61 9.15) rotate(-5.61)"/></g></g><rect id="Front_of_Hook" data-name="Front of Hook" class="cls-7" x="51.02" y="0.5" width="5.06" height="17.33" rx="2.53" ry="2.53"/></g></g></svg>