<?xml version="1.0" standalone="no"?>
<!DOCTYPE svg PUBLIC "-//W3C//DTD SVG 20010904//EN"
 "http://www.w3.org/TR/2001/REC-SVG-20010904/DTD/svg10.dtd">
<svg version="1.0" xmlns="http://www.w3.org/2000/svg"
 width="600.000000pt" height="478.000000pt" viewBox="0 0 600.000000 478.000000"
 preserveAspectRatio="xMidYMid meet">
<metadata>
Created by potrace 1.15, written by Peter Selinger 2001-2017
</metadata>
<g transform="translate(0.000000,478.000000) scale(0.100000,-0.100000)"
fill="#000000" stroke="none">
<path d="M1825 4761 c-108 -31 -175 -71 -261 -156 -61 -61 -90 -98 -118 -155
-61 -126 -79 -252 -52 -378 l13 -64 -36 -22 c-20 -13 -126 -78 -235 -146 -186
-114 -201 -121 -212 -104 -73 106 -147 169 -242 204 -194 74 -400 32 -542
-110 -96 -96 -140 -202 -140 -338 0 -143 41 -244 141 -345 189 -189 515 -191
702 -3 126 126 176 301 132 466 -8 30 -13 55 -12 56 3 2 451 276 459 281 4 2
22 -25 40 -59 63 -118 207 -235 339 -274 32 -10 59 -22 59 -28 0 -20 -303
-1421 -309 -1428 -5 -5 -591 59 -599 67 -1 1 -7 28 -12 59 -32 196 -220 329
-420 297 -123 -20 -218 -89 -272 -199 -30 -60 -33 -75 -33 -157 0 -82 3 -97
33 -157 144 -293 591 -258 684 54 l13 44 295 -35 c162 -18 296 -35 298 -36 1
-1 -10 -60 -26 -131 l-28 -129 -85 -6 c-96 -7 -130 -17 -185 -52 -84 -53 -136
-124 -160 -220 -43 -165 42 -341 200 -414 53 -24 73 -28 156 -28 82 0 103 4
152 27 81 38 150 105 184 181 23 52 28 76 28 147 1 72 -3 94 -27 145 -31 66
-93 137 -147 165 -67 36 -64 25 -34 166 15 71 30 132 33 136 3 4 116 -7 251
-23 135 -16 247 -29 250 -29 3 0 5 -53 6 -118 2 -189 48 -367 137 -524 l43
-74 -575 -375 -574 -375 -29 55 c-98 188 -323 277 -534 213 -124 -38 -234
-151 -274 -280 -69 -223 53 -458 277 -533 53 -17 82 -21 161 -17 83 3 107 8
164 35 161 75 251 217 250 393 l0 75 575 375 c317 206 579 376 584 378 5 2 50
-40 100 -93 153 -159 333 -265 549 -322 128 -34 344 -42 476 -19 247 43 455
148 632 320 l53 51 85 -87 86 -87 -32 -45 c-45 -67 -62 -121 -62 -206 0 -144
71 -259 200 -322 62 -31 74 -33 167 -33 87 0 107 3 157 27 73 34 142 103 176
176 23 49 27 70 27 152 0 81 -4 103 -26 150 -14 30 -46 75 -71 100 l-45 46 64
159 65 160 107 0 c95 0 112 3 167 28 77 36 145 104 181 182 23 50 27 73 27
145 0 72 -4 94 -27 145 -16 33 -44 77 -64 97 l-36 37 127 548 c70 301 132 565
137 586 9 35 12 37 48 37 144 0 314 117 383 265 28 60 33 83 36 167 3 72 0
109 -13 150 -46 142 -151 249 -293 299 -79 29 -225 29 -304 0 -142 -50 -247
-157 -292 -298 -21 -62 1 -58 -326 -73 -124 -6 -260 -13 -302 -16 l-76 -6 -25
49 c-89 174 -317 248 -497 160 -44 -22 -123 -92 -151 -134 l-14 -23 -545 199
-545 198 -7 83 c-4 46 -16 113 -27 149 -59 192 -230 354 -428 405 -83 22 -249
20 -328 -3z m1332 -892 c526 -191 531 -193 522 -217 -13 -34 -11 -140 4 -187
34 -109 115 -197 215 -236 87 -34 208 -32 287 4 33 16 66 34 75 41 13 12 34
-5 158 -124 l144 -138 -26 -38 c-83 -126 -77 -306 15 -417 69 -83 163 -128
277 -129 39 -1 72 -3 72 -5 0 -2 11 -74 25 -159 29 -180 29 -174 13 -174 -27
0 -135 -59 -167 -91 -97 -97 -133 -231 -95 -359 26 -86 90 -171 157 -206 15
-8 27 -17 27 -20 0 -6 -121 -306 -126 -312 -1 -2 -30 4 -63 14 -90 25 -193 16
-273 -24 l-63 -31 -87 87 c-49 47 -88 89 -88 93 0 3 21 37 46 75 136 202 190
399 181 654 -9 260 -89 474 -249 665 -299 358 -793 502 -1239 362 l-74 -23
-145 231 c-80 126 -183 289 -229 362 l-83 132 64 64 c64 64 123 162 148 242 6
22 13 46 16 54 2 7 10 11 17 8 6 -2 251 -91 544 -198z m-614 -561 l225 -357
-76 -41 c-185 -100 -337 -248 -446 -436 -51 -88 -114 -260 -123 -336 -5 -40
-9 -48 -27 -48 -23 0 -479 52 -484 55 -1 1 67 325 153 720 85 394 155 718 155
719 0 0 35 1 78 1 94 0 178 18 257 54 33 16 61 28 62 27 0 -1 102 -162 226
-358z m2537 305 c0 -100 52 -214 131 -289 68 -64 127 -98 206 -120 60 -16 62
-18 56 -43 -4 -14 -63 -269 -132 -566 l-126 -540 -55 22 c-30 12 -76 23 -102
23 -55 0 -48 -16 -78 180 -12 74 -23 142 -25 150 -3 10 9 21 38 33 80 33 158
126 183 218 18 70 18 123 -2 189 -47 158 -175 252 -344 252 -77 0 -126 -13
-183 -49 l-39 -24 -121 117 c-67 65 -132 127 -145 139 l-23 22 29 44 c46 69
57 117 57 250 0 1 594 36 638 38 l37 1 0 -47z"/>
</g>
</svg>
