<?xml version="1.0" standalone="no"?>
<!DOCTYPE svg PUBLIC "-//W3C//DTD SVG 20010904//EN"
 "http://www.w3.org/TR/2001/REC-SVG-20010904/DTD/svg10.dtd">
<svg version="1.0" xmlns="http://www.w3.org/2000/svg"
 width="640.000000pt" height="640.000000pt" viewBox="0 0 640.000000 640.000000"
 preserveAspectRatio="xMidYMid meet">
<metadata>
Created by potrace 1.15, written by Peter Selinger 2001-2017
</metadata>
<g transform="translate(0.000000,640.000000) scale(0.100000,-0.100000)"
fill="#000000" stroke="none">
<path d="M2900 6394 c-586 -71 -1019 -225 -1480 -526 -41 -27 -63 -39 -48 -26
47 40 228 149 373 225 77 40 136 73 131 73 -16 0 -269 -135 -374 -201 -123
-76 -327 -228 -398 -296 -28 -26 -37 -37 -20 -23 24 19 22 15 -9 -18 -37 -40
-61 -59 -35 -27 7 8 8 15 4 15 -5 0 -61 -53 -125 -117 -128 -131 -178 -190
-114 -133 l40 35 -30 -34 c-17 -18 -40 -37 -52 -42 -13 -5 -23 -13 -23 -19 0
-6 6 -8 13 -4 6 4 1 -5 -12 -19 -30 -33 -42 -36 -15 -4 17 20 16 20 -9 -2 -27
-25 -37 -48 -14 -35 6 4 3 -2 -7 -14 -23 -26 -34 -29 -15 -4 11 14 10 13 -9
-2 -23 -20 -31 -42 -9 -30 8 5 8 2 -2 -9 -15 -18 -26 -23 -16 -7 3 6 4 10 2
10 -8 0 -89 -112 -84 -116 3 -3 14 10 26 29 12 19 29 41 38 48 9 8 0 -10 -21
-38 -21 -29 -42 -51 -48 -50 -6 1 -13 -4 -16 -12 -3 -9 0 -11 9 -6 8 5 11 4 6
-1 -5 -5 -14 -9 -19 -9 -6 0 -13 -6 -16 -14 -3 -9 0 -11 9 -6 8 5 11 4 6 -1
-5 -5 -14 -9 -19 -9 -6 0 -13 -6 -16 -14 -3 -9 0 -11 9 -6 8 5 11 4 6 -1 -5
-5 -14 -9 -19 -9 -6 0 -13 -6 -16 -14 -3 -9 0 -11 8 -6 9 5 11 4 6 -4 -4 -6
-11 -9 -16 -6 -5 3 -14 -3 -19 -14 -14 -26 -14 -34 1 -25 7 4 8 3 4 -5 -4 -6
-11 -9 -16 -6 -5 3 -14 -3 -19 -14 -14 -26 -14 -34 2 -25 7 4 9 3 4 -2 -5 -5
-13 -9 -19 -9 -14 0 -125 -212 -188 -359 -95 -222 -171 -479 -209 -709 -17
-98 -19 -167 -19 -547 0 -478 4 -528 68 -777 54 -215 137 -454 150 -433 5 8 9
7 13 -4 3 -8 1 -16 -5 -18 -7 -3 -5 -14 6 -33 15 -28 16 -28 11 -5 l-6 25 15
-25 c8 -14 10 -27 5 -31 -10 -6 64 -163 136 -289 26 -44 51 -78 55 -75 5 3 12
0 16 -6 4 -8 3 -9 -4 -5 -19 12 -14 -5 19 -56 17 -26 35 -46 39 -43 5 3 12 0
16 -6 5 -8 3 -9 -6 -4 -8 5 -11 3 -8 -6 3 -8 10 -14 15 -14 6 0 15 -4 20 -9 5
-5 2 -6 -6 -1 -9 5 -12 3 -9 -6 3 -8 10 -14 15 -14 6 0 15 -4 20 -9 5 -5 3 -6
-4 -2 -19 11 -16 -9 4 -25 15 -12 16 -12 8 1 -8 13 -7 13 8 1 18 -15 23 -26 7
-16 -5 3 -10 3 -10 0 0 -9 90 -125 97 -125 3 0 -1 8 -8 18 -11 14 -10 13 9 -2
23 -20 30 -32 12 -21 -21 13 -9 -13 17 -36 20 -18 24 -19 13 -4 -15 20 -14 20
8 1 23 -20 30 -32 12 -21 -25 16 -4 -16 51 -75 34 -36 58 -58 54 -50 -4 8 29
-21 74 -65 44 -44 81 -82 81 -84 0 -3 -33 26 -72 64 l-73 70 60 -63 c64 -67
248 -232 259 -232 4 0 4 6 0 13 -4 6 2 3 14 -7 26 -23 30 -34 5 -15 -16 12
-17 12 -6 -2 13 -16 211 -160 268 -195 56 -33 10 2 -102 80 -62 43 -118 85
-124 93 -7 8 39 -22 101 -67 335 -240 706 -409 1105 -505 119 -29 188 -41 365
-68 21 -4 20 -5 -7 -6 -75 -3 -383 63 -578 123 -43 14 -81 23 -83 21 -5 -5
168 -58 295 -90 244 -61 285 -64 798 -60 303 2 482 7 505 14 l35 11 -43 -5
c-66 -8 -170 -15 -142 -9 14 2 70 12 125 20 472 74 947 269 1345 554 62 45
108 75 101 67 -6 -8 -62 -50 -124 -93 -112 -78 -158 -113 -102 -80 57 35 255
179 268 195 11 14 10 15 -8 1 -20 -15 -20 -14 -1 8 20 23 32 30 21 12 -16 -25
15 -3 107 77 104 90 338 330 338 346 0 5 -8 3 -17 -4 -10 -7 -7 -1 6 14 27 30
41 37 20 10 -7 -10 -1 -7 14 6 27 25 37 48 15 35 -9 -5 -8 -2 1 9 8 10 16 15
19 12 7 -6 32 15 32 27 0 5 -6 6 -12 2 -9 -5 -9 -2 1 9 16 20 26 23 15 5 -5
-9 -2 -9 9 1 18 14 24 36 7 26 -16 -10 -11 1 7 16 14 12 16 12 9 -1 -4 -8 6 1
23 20 17 19 31 40 31 45 0 6 -12 -3 -26 -20 l-26 -30 22 32 c11 18 26 32 32
30 6 -1 13 4 16 12 3 9 0 11 -9 6 -8 -5 -11 -4 -6 1 5 5 14 9 20 9 5 0 12 6
15 14 3 9 0 11 -9 6 -8 -5 -11 -4 -6 1 5 5 14 9 20 9 5 0 12 6 15 14 3 9 0 11
-9 6 -8 -5 -11 -4 -6 1 5 5 14 9 20 9 5 0 12 6 15 14 3 9 0 11 -8 6 -9 -5 -11
-4 -6 4 4 6 11 9 16 6 5 -3 14 3 19 14 14 26 14 34 -1 25 -7 -4 -8 -3 -4 5 4
6 11 9 16 6 4 -3 29 31 55 75 72 126 146 283 136 289 -5 4 -3 17 5 31 l15 25
-6 -25 c-5 -23 -4 -23 11 5 11 19 13 30 6 33 -6 2 -8 10 -5 18 4 11 8 12 13 4
12 -20 103 243 155 447 59 235 63 291 63 763 0 478 -4 527 -67 778 -54 212
-167 525 -181 502 -5 -8 -9 -8 -13 4 -3 8 -1 16 5 18 13 5 -144 313 -159 313
-6 0 -15 4 -20 9 -5 5 -3 6 5 2 15 -9 15 -1 1 25 -5 11 -14 17 -19 14 -5 -3
-12 0 -16 6 -4 8 -3 9 4 5 15 -9 15 -1 1 25 -5 11 -14 17 -19 14 -5 -3 -12 0
-16 6 -5 8 -3 9 6 4 8 -5 11 -3 8 6 -3 8 -10 14 -16 14 -5 0 -14 4 -19 9 -5 5
-2 6 6 1 9 -5 12 -3 9 6 -3 8 -10 14 -16 14 -5 0 -14 4 -19 9 -5 5 -2 6 6 1 9
-5 12 -3 9 6 -3 8 -10 14 -16 14 -5 0 -14 4 -19 9 -5 5 -2 6 6 1 9 -5 12 -3 9
6 -3 8 -10 14 -16 14 -5 0 -14 4 -19 9 -5 5 -3 6 5 2 18 -11 15 9 -5 25 -15
12 -16 12 -8 -1 8 -13 7 -13 -8 -1 -18 15 -23 26 -7 16 6 -3 10 -3 10 0 0 9
-90 125 -97 125 -3 0 1 -8 8 -17 11 -15 10 -14 -9 1 -23 20 -30 32 -12 21 21
-13 9 13 -17 36 l-28 24 20 -25 20 -25 -28 24 c-27 24 -36 38 -17 26 6 -3 10
-2 10 3 0 14 -290 312 -302 312 -6 0 -5 -8 3 -17 7 -10 -6 0 -29 22 -47 44
-57 62 -14 24 16 -13 6 -2 -22 25 -70 66 -273 217 -398 295 -104 65 -357 201
-374 201 -5 0 54 -33 131 -73 145 -76 326 -185 373 -225 15 -13 -7 -1 -48 26
-329 215 -654 357 -1023 447 -261 64 -376 77 -717 80 -168 2 -321 1 -340 -1z
m634 -269 c1272 -149 2298 -1090 2551 -2340 25 -124 55 -350 55 -417 l0 -38
-919 0 -918 0 -7 58 c-9 82 -74 266 -127 357 -154 270 -392 450 -709 538 -63
17 -103 21 -260 21 -157 0 -197 -4 -260 -21 -317 -88 -555 -268 -709 -538 -53
-91 -118 -275 -127 -357 l-7 -58 -918 0 -919 0 0 38 c0 20 7 93 15 162 79 677
365 1270 845 1750 476 476 1068 764 1740 845 151 18 517 18 674 0z m-123
-2094 c314 -80 561 -337 630 -656 7 -33 13 -112 13 -175 0 -63 -6 -142 -13
-175 -72 -330 -336 -594 -666 -666 -77 -17 -273 -17 -350 0 -330 72 -594 336
-666 666 -7 33 -13 112 -13 175 0 129 13 200 56 312 100 262 357 479 623 527
33 6 71 13 85 15 51 9 228 -4 301 -23z m-1307 -1019 c9 -82 74 -266 127 -357
154 -270 392 -450 709 -538 63 -17 103 -21 260 -21 157 0 197 4 260 21 317 88
555 268 709 538 53 91 118 275 127 357 l7 58 918 0 919 0 0 -38 c0 -67 -30
-293 -55 -417 -180 -888 -760 -1644 -1575 -2050 -418 -209 -832 -305 -1310
-305 -224 0 -392 16 -585 55 -1157 234 -2066 1143 -2300 2300 -25 124 -55 350
-55 417 l0 38 919 0 918 0 7 -58z"/>
<path d="M3100 3760 c-119 -22 -247 -94 -325 -183 -84 -95 -145 -254 -145
-377 0 -204 130 -415 311 -504 126 -62 244 -78 374 -51 220 46 394 220 440
440 18 88 18 142 0 230 -53 253 -267 437 -523 450 -48 2 -107 0 -132 -5z m171
-150 c219 -41 377 -260 340 -471 -31 -181 -169 -319 -348 -350 -217 -38 -434
122 -474 349 -41 235 155 471 402 481 15 1 51 -4 80 -9z"/>
</g>
</svg>
